<svg height="2638" width="720" xmlns="http://www.w3.org/2000/svg">
<rect height="2638" fill="#555" width="720"></rect>
<text fill="#7f7" font-family="Courier New" font-size="12" xml:space="preserve">
<tspan x="10" y="26">8 megabytes installed</tspan>
<tspan x="10" y="42"></tspan>
<tspan x="10" y="58">node_modules</tspan>
<tspan x="10" y="74">└─┬ gulp-nunjucks-render@2.2.1 </tspan>
<tspan x="10" y="90">  ├─┬ gulp-util@2.2.20 </tspan>
<tspan x="10" y="106">  │ ├─┬ chalk@0.5.1 </tspan>
<tspan x="10" y="122">  │ │ ├── ansi-styles@1.1.0 </tspan>
<tspan x="10" y="138">  │ │ ├── escape-string-regexp@1.0.5 </tspan>
<tspan x="10" y="154">  │ │ ├─┬ has-ansi@0.1.0 </tspan>
<tspan x="10" y="170">  │ │ │ └── ansi-regex@0.2.1 </tspan>
<tspan x="10" y="186">  │ │ ├── strip-ansi@0.3.0 </tspan>
<tspan x="10" y="202">  │ │ └── supports-color@0.2.0 </tspan>
<tspan x="10" y="218">  │ ├─┬ dateformat@1.0.12 </tspan>
<tspan x="10" y="234">  │ │ ├── get-stdin@4.0.1 </tspan>
<tspan x="10" y="250">  │ │ └─┬ meow@3.7.0 </tspan>
<tspan x="10" y="266">  │ │   ├── camelcase-keys@2.1.0 </tspan>
<tspan x="10" y="282">  │ │   ├─┬ loud-rejection@1.6.0 </tspan>
<tspan x="10" y="298">  │ │   │ ├─┬ currently-unhandled@0.4.1 </tspan>
<tspan x="10" y="314">  │ │   │ │ └── array-find-index@1.0.2 </tspan>
<tspan x="10" y="330">  │ │   │ └── signal-exit@3.0.2 </tspan>
<tspan x="10" y="346">  │ │   ├── map-obj@1.0.1 </tspan>
<tspan x="10" y="362">  │ │   ├── minimist@1.2.0 </tspan>
<tspan x="10" y="378">  │ │   ├─┬ normalize-package-data@2.3.8 </tspan>
<tspan x="10" y="394">  │ │   │ ├── hosted-git-info@2.4.2 </tspan>
<tspan x="10" y="410">  │ │   │ ├─┬ is-builtin-module@1.0.0 </tspan>
<tspan x="10" y="426">  │ │   │ │ └── builtin-modules@1.1.1 </tspan>
<tspan x="10" y="442">  │ │   │ ├── semver@5.3.0 </tspan>
<tspan x="10" y="458">  │ │   │ └─┬ validate-npm-package-license@3.0.1 </tspan>
<tspan x="10" y="474">  │ │   │   ├─┬ spdx-correct@1.0.2 </tspan>
<tspan x="10" y="490">  │ │   │   │ └── spdx-license-ids@1.2.2 </tspan>
<tspan x="10" y="506">  │ │   │   └── spdx-expression-parse@1.0.4 </tspan>
<tspan x="10" y="522">  │ │   ├── object-assign@4.1.1 </tspan>
<tspan x="10" y="538">  │ │   ├─┬ read-pkg-up@1.0.1 </tspan>
<tspan x="10" y="554">  │ │   │ ├─┬ find-up@1.1.2 </tspan>
<tspan x="10" y="570">  │ │   │ │ ├── path-exists@2.1.0 </tspan>
<tspan x="10" y="586">  │ │   │ │ └─┬ pinkie-promise@2.0.1 </tspan>
<tspan x="10" y="602">  │ │   │ │   └── pinkie@2.0.4 </tspan>
<tspan x="10" y="618">  │ │   │ └─┬ read-pkg@1.1.0 </tspan>
<tspan x="10" y="634">  │ │   │   ├─┬ load-json-file@1.1.0 </tspan>
<tspan x="10" y="650">  │ │   │   │ ├─┬ parse-json@2.2.0 </tspan>
<tspan x="10" y="666">  │ │   │   │ │ └─┬ error-ex@1.3.1 </tspan>
<tspan x="10" y="682">  │ │   │   │ │   └── is-arrayish@0.2.1 </tspan>
<tspan x="10" y="698">  │ │   │   │ ├── pify@2.3.0 </tspan>
<tspan x="10" y="714">  │ │   │   │ └─┬ strip-bom@2.0.0 </tspan>
<tspan x="10" y="730">  │ │   │   │   └── is-utf8@0.2.1 </tspan>
<tspan x="10" y="746">  │ │   │   └── path-type@1.1.0 </tspan>
<tspan x="10" y="762">  │ │   ├─┬ redent@1.0.0 </tspan>
<tspan x="10" y="778">  │ │   │ ├─┬ indent-string@2.1.0 </tspan>
<tspan x="10" y="794">  │ │   │ │ └─┬ repeating@2.0.1 </tspan>
<tspan x="10" y="810">  │ │   │ │   └── is-finite@1.0.2 </tspan>
<tspan x="10" y="826">  │ │   │ └── strip-indent@1.0.1 </tspan>
<tspan x="10" y="842">  │ │   └── trim-newlines@1.0.0 </tspan>
<tspan x="10" y="858">  │ ├── lodash._reinterpolate@2.4.1 </tspan>
<tspan x="10" y="874">  │ ├─┬ lodash.template@2.4.1 </tspan>
<tspan x="10" y="890">  │ │ ├── lodash._escapestringchar@2.4.1 </tspan>
<tspan x="10" y="906">  │ │ ├─┬ lodash.defaults@2.4.1 </tspan>
<tspan x="10" y="922">  │ │ │ └── lodash._objecttypes@2.4.1 </tspan>
<tspan x="10" y="938">  │ │ ├─┬ lodash.escape@2.4.1 </tspan>
<tspan x="10" y="954">  │ │ │ ├─┬ lodash._escapehtmlchar@2.4.1 </tspan>
<tspan x="10" y="970">  │ │ │ │ └── lodash._htmlescapes@2.4.1 </tspan>
<tspan x="10" y="986">  │ │ │ └── lodash._reunescapedhtml@2.4.1 </tspan>
<tspan x="10" y="1002">  │ │ ├─┬ lodash.keys@2.4.1 </tspan>
<tspan x="10" y="1018">  │ │ │ ├── lodash._isnative@2.4.1 </tspan>
<tspan x="10" y="1034">  │ │ │ ├── lodash._shimkeys@2.4.1 </tspan>
<tspan x="10" y="1050">  │ │ │ └── lodash.isobject@2.4.1 </tspan>
<tspan x="10" y="1066">  │ │ ├── lodash.templatesettings@2.4.1 </tspan>
<tspan x="10" y="1082">  │ │ └── lodash.values@2.4.1 </tspan>
<tspan x="10" y="1098">  │ ├── minimist@0.2.0 </tspan>
<tspan x="10" y="1114">  │ ├─┬ multipipe@0.1.2 </tspan>
<tspan x="10" y="1130">  │ │ └─┬ duplexer2@0.0.2 </tspan>
<tspan x="10" y="1146">  │ │   └── readable-stream@1.1.14 </tspan>
<tspan x="10" y="1162">  │ ├─┬ through2@0.5.1 </tspan>
<tspan x="10" y="1178">  │ │ ├── readable-stream@1.0.34 </tspan>
<tspan x="10" y="1194">  │ │ └── xtend@3.0.0 </tspan>
<tspan x="10" y="1210">  │ └─┬ vinyl@0.2.3 </tspan>
<tspan x="10" y="1226">  │   └── clone-stats@0.0.1 </tspan>
<tspan x="10" y="1242">  ├── lodash@3.10.1 </tspan>
<tspan x="10" y="1258">  ├─┬ nunjucks@3.0.0 </tspan>
<tspan x="10" y="1274">  │ ├── a-sync-waterfall@1.0.0 </tspan>
<tspan x="10" y="1290">  │ ├── asap@2.0.5 </tspan>
<tspan x="10" y="1306">  │ ├─┬ chokidar@1.6.1 </tspan>
<tspan x="10" y="1322">  │ │ ├─┬ anymatch@1.3.0 </tspan>
<tspan x="10" y="1338">  │ │ │ ├── arrify@1.0.1 </tspan>
<tspan x="10" y="1354">  │ │ │ └─┬ micromatch@2.3.11 </tspan>
<tspan x="10" y="1370">  │ │ │   ├─┬ arr-diff@2.0.0 </tspan>
<tspan x="10" y="1386">  │ │ │   │ └── arr-flatten@1.0.3 </tspan>
<tspan x="10" y="1402">  │ │ │   ├── array-unique@0.2.1 </tspan>
<tspan x="10" y="1418">  │ │ │   ├─┬ braces@1.8.5 </tspan>
<tspan x="10" y="1434">  │ │ │   │ ├─┬ expand-range@1.8.2 </tspan>
<tspan x="10" y="1450">  │ │ │   │ │ └─┬ fill-range@2.2.3 </tspan>
<tspan x="10" y="1466">  │ │ │   │ │   ├── is-number@2.1.0 </tspan>
<tspan x="10" y="1482">  │ │ │   │ │   ├─┬ isobject@2.1.0 </tspan>
<tspan x="10" y="1498">  │ │ │   │ │   │ └── isarray@1.0.0 </tspan>
<tspan x="10" y="1514">  │ │ │   │ │   ├── randomatic@1.1.6 </tspan>
<tspan x="10" y="1530">  │ │ │   │ │   └── repeat-string@1.6.1 </tspan>
<tspan x="10" y="1546">  │ │ │   │ ├── preserve@0.2.0 </tspan>
<tspan x="10" y="1562">  │ │ │   │ └── repeat-element@1.1.2 </tspan>
<tspan x="10" y="1578">  │ │ │   ├─┬ expand-brackets@0.1.5 </tspan>
<tspan x="10" y="1594">  │ │ │   │ └── is-posix-bracket@0.1.1 </tspan>
<tspan x="10" y="1610">  │ │ │   ├── extglob@0.3.2 </tspan>
<tspan x="10" y="1626">  │ │ │   ├── filename-regex@2.0.0 </tspan>
<tspan x="10" y="1642">  │ │ │   ├─┬ kind-of@3.1.0 </tspan>
<tspan x="10" y="1658">  │ │ │   │ └── is-buffer@1.1.5 </tspan>
<tspan x="10" y="1674">  │ │ │   ├─┬ normalize-path@2.1.1 </tspan>
<tspan x="10" y="1690">  │ │ │   │ └── remove-trailing-separator@1.0.1 </tspan>
<tspan x="10" y="1706">  │ │ │   ├─┬ object.omit@2.0.1 </tspan>
<tspan x="10" y="1722">  │ │ │   │ ├─┬ for-own@0.1.5 </tspan>
<tspan x="10" y="1738">  │ │ │   │ │ └── for-in@1.0.2 </tspan>
<tspan x="10" y="1754">  │ │ │   │ └── is-extendable@0.1.1 </tspan>
<tspan x="10" y="1770">  │ │ │   ├─┬ parse-glob@3.0.4 </tspan>
<tspan x="10" y="1786">  │ │ │   │ ├── glob-base@0.3.0 </tspan>
<tspan x="10" y="1802">  │ │ │   │ └── is-dotfile@1.0.2 </tspan>
<tspan x="10" y="1818">  │ │ │   └─┬ regex-cache@0.4.3 </tspan>
<tspan x="10" y="1834">  │ │ │     ├── is-equal-shallow@0.1.3 </tspan>
<tspan x="10" y="1850">  │ │ │     └── is-primitive@2.0.0 </tspan>
<tspan x="10" y="1866">  │ │ ├── async-each@1.0.1 </tspan>
<tspan x="10" y="1882">  │ │ ├── glob-parent@2.0.0 </tspan>
<tspan x="10" y="1898">  │ │ ├── inherits@2.0.3 </tspan>
<tspan x="10" y="1914">  │ │ ├─┬ is-binary-path@1.0.1 </tspan>
<tspan x="10" y="1930">  │ │ │ └── binary-extensions@1.8.0 </tspan>
<tspan x="10" y="1946">  │ │ ├─┬ is-glob@2.0.1 </tspan>
<tspan x="10" y="1962">  │ │ │ └── is-extglob@1.0.0 </tspan>
<tspan x="10" y="1978">  │ │ ├── path-is-absolute@1.0.1 </tspan>
<tspan x="10" y="1994">  │ │ └─┬ readdirp@2.1.0 </tspan>
<tspan x="10" y="2010">  │ │   ├── graceful-fs@4.1.11 </tspan>
<tspan x="10" y="2026">  │ │   ├─┬ minimatch@3.0.3 </tspan>
<tspan x="10" y="2042">  │ │   │ └─┬ brace-expansion@1.1.7 </tspan>
<tspan x="10" y="2058">  │ │   │   ├── balanced-match@0.4.2 </tspan>
<tspan x="10" y="2074">  │ │   │   └── concat-map@0.0.1 </tspan>
<tspan x="10" y="2090">  │ │   ├─┬ readable-stream@2.2.9 </tspan>
<tspan x="10" y="2106">  │ │   │ ├── buffer-shims@1.0.0 </tspan>
<tspan x="10" y="2122">  │ │   │ ├── isarray@1.0.0 </tspan>
<tspan x="10" y="2138">  │ │   │ ├── process-nextick-args@1.0.7 </tspan>
<tspan x="10" y="2154">  │ │   │ ├── string_decoder@1.0.0 </tspan>
<tspan x="10" y="2170">  │ │   │ └── util-deprecate@1.0.2 </tspan>
<tspan x="10" y="2186">  │ │   └── set-immediate-shim@1.0.1 </tspan>
<tspan x="10" y="2202">  │ └─┬ yargs@3.32.0 </tspan>
<tspan x="10" y="2218">  │   ├── camelcase@2.1.1 </tspan>
<tspan x="10" y="2234">  │   ├─┬ cliui@3.2.0 </tspan>
<tspan x="10" y="2250">  │   │ ├─┬ strip-ansi@3.0.1 </tspan>
<tspan x="10" y="2266">  │   │ │ └── ansi-regex@2.1.1 </tspan>
<tspan x="10" y="2282">  │   │ └─┬ wrap-ansi@2.1.0 </tspan>
<tspan x="10" y="2298">  │   │   └─┬ strip-ansi@3.0.1 </tspan>
<tspan x="10" y="2314">  │   │     └── ansi-regex@2.1.1 </tspan>
<tspan x="10" y="2330">  │   ├── decamelize@1.2.0 </tspan>
<tspan x="10" y="2346">  │   ├─┬ os-locale@1.4.0 </tspan>
<tspan x="10" y="2362">  │   │ └─┬ lcid@1.0.0 </tspan>
<tspan x="10" y="2378">  │   │   └── invert-kv@1.0.0 </tspan>
<tspan x="10" y="2394">  │   ├─┬ string-width@1.0.2 </tspan>
<tspan x="10" y="2410">  │   │ ├── code-point-at@1.1.0 </tspan>
<tspan x="10" y="2426">  │   │ ├─┬ is-fullwidth-code-point@1.0.0 </tspan>
<tspan x="10" y="2442">  │   │ │ └── number-is-nan@1.0.1 </tspan>
<tspan x="10" y="2458">  │   │ └─┬ strip-ansi@3.0.1 </tspan>
<tspan x="10" y="2474">  │   │   └── ansi-regex@2.1.1 </tspan>
<tspan x="10" y="2490">  │   ├── window-size@0.1.4 </tspan>
<tspan x="10" y="2506">  │   └── y18n@3.2.1 </tspan>
<tspan x="10" y="2522">  └─┬ through2@0.4.2 </tspan>
<tspan x="10" y="2538">    ├─┬ readable-stream@1.0.34 </tspan>
<tspan x="10" y="2554">    │ ├── core-util-is@1.0.2 </tspan>
<tspan x="10" y="2570">    │ ├── isarray@0.0.1 </tspan>
<tspan x="10" y="2586">    │ └── string_decoder@0.10.31 </tspan>
<tspan x="10" y="2602">    └─┬ xtend@2.1.2 </tspan>
<tspan x="10" y="2618">      └── object-keys@0.4.0</tspan>
</text>
</svg>
